<svg width="14" height="14" viewBox="0 0 14 14" fill="none" xmlns="http://www.w3.org/2000/svg">
<path d="M5.24988 3.96551H6.40457V9.25145C6.40457 9.3202 6.46082 9.37645 6.52957 9.37645H7.46707C7.53582 9.37645 7.59207 9.3202 7.59207 9.25145V3.96551H8.74988C8.85457 3.96551 8.91238 3.8452 8.84832 3.76395L7.09832 1.54833C7.08662 1.53339 7.07168 1.5213 7.05463 1.51299C7.03757 1.50468 7.01885 1.50037 6.99988 1.50037C6.98091 1.50037 6.96218 1.50468 6.94513 1.51299C6.92807 1.5213 6.91313 1.53339 6.90144 1.54833L5.15144 3.76239C5.08738 3.8452 5.14519 3.96551 5.24988 3.96551ZM12.7186 8.7827H11.7811C11.7124 8.7827 11.6561 8.83895 11.6561 8.9077V11.314H2.34363V8.9077C2.34363 8.83895 2.28738 8.7827 2.21863 8.7827H1.28113C1.21238 8.7827 1.15613 8.83895 1.15613 8.9077V12.0015C1.15613 12.278 1.37957 12.5015 1.65613 12.5015H12.3436C12.6202 12.5015 12.8436 12.278 12.8436 12.0015V8.9077C12.8436 8.83895 12.7874 8.7827 12.7186 8.7827Z" fill="black"/>
</svg>
